<svg width="28" height="28" viewBox="0 0 28 28" xmlns="http://www.w3.org/2000/svg">
<path opacity="0.3" d="M14.0003 3.5L4.66699 9.68333V22.1667C4.66699 22.8667 5.13366 23.3333 5.83366 23.3333H22.167C22.867 23.3333 23.3337 22.8667 23.3337 22.1667V9.68333L14.0003 3.5Z" fill="#E3EDF7"/>
<path d="M22.1667 24.5001H5.83333C4.55 24.5001 3.5 23.4501 3.5 22.1668V9.1001L14 2.1001L24.5 9.1001V22.1668C24.5 23.4501 23.45 24.5001 22.1667 24.5001ZM5.83333 10.2668V22.1668H22.1667V10.2668L14 4.9001L5.83333 10.2668Z" />
<path d="M12.833 10.5H15.1663V19.8333H12.833V10.5Z" />
<path d="M9.33301 14H18.6663V16.3333H9.33301V14Z" />
</svg>
