<svg width="24" height="21" viewBox="0 0 24 21" xmlns="http://www.w3.org/2000/svg">
<path d="M8.46337 0.666504C6.54424 0.666504 4.96337 2.24737 4.96337 4.1665V5.54508C4.70063 5.44853 4.42382 5.37698 4.12939 5.34912C3.44219 5.28384 2.74381 5.42532 2.13329 5.75472C0.491012 6.638 -0.0516647 8.63813 0.604321 10.2756L2.58674 15.2339C3.19523 16.7524 4.55227 17.8215 6.13004 18.0936V20.4998H8.46337V18.1665H15.5295V20.4998H17.8628V18.0936C19.4399 17.821 20.7965 16.7525 21.4038 15.2339V15.2316L23.3976 10.2482C24.0267 8.6739 23.5429 6.76289 22.0099 5.84131C21.4632 5.51204 20.8344 5.33317 20.1984 5.33317C19.7919 5.33317 19.3996 5.41091 19.0294 5.54281V4.1665C19.0294 2.24737 17.4486 0.666504 15.5295 0.666504H8.46337ZM8.46337 2.99984H15.5295C16.1887 2.99984 16.6961 3.5073 16.6961 4.1665V8.15869L15.493 11.1665H8.49983L7.2967 8.15869V4.1665C7.2967 3.5073 7.80417 2.99984 8.46337 2.99984ZM20.1984 7.6665C20.4133 7.6665 20.6073 7.71935 20.8068 7.83968C21.2688 8.11743 21.4649 8.79602 21.2306 9.38232L19.2368 14.3657C18.8817 15.2545 18.0301 15.8332 17.0721 15.8332H6.91845C5.96264 15.8332 5.11011 15.2554 4.75374 14.368V14.3657L2.76903 9.40967V9.40739C2.52243 8.79195 2.74346 8.07563 3.23844 7.81006V7.80778H3.24071C3.4562 7.69151 3.66222 7.64996 3.90836 7.67334H3.91064C4.31474 7.71158 4.74356 8.05919 4.94286 8.55745L6.91845 13.4998H17.0721L19.1115 8.40251C19.2903 7.95475 19.7168 7.6665 20.1984 7.6665Z"/>
</svg>
