<svg width="22" height="24" viewBox="0 0 22 24"  xmlns="http://www.w3.org/2000/svg">
<path d="M11 0.166504C9.47867 0.166504 8.19603 1.143 7.71419 2.49984H2.83333C1.54417 2.49984 0.5 3.544 0.5 4.83317V21.1665C0.5 22.4557 1.54417 23.4998 2.83333 23.4998H19.1667C20.4558 23.4998 21.5 22.4557 21.5 21.1665V4.83317C21.5 3.544 20.4558 2.49984 19.1667 2.49984H14.2858C13.804 1.143 12.5213 0.166504 11 0.166504ZM11 2.49984C11.644 2.49984 12.1667 3.0225 12.1667 3.6665C12.1667 4.3105 11.644 4.83317 11 4.83317H19.1667V21.1665H2.83333V4.83317H11C10.356 4.83317 9.83333 4.3105 9.83333 3.6665C9.83333 3.0225 10.356 2.49984 11 2.49984ZM11 8.33317C10.3812 8.33317 9.78767 8.579 9.35009 9.01659C8.9125 9.45417 8.66667 10.0477 8.66667 10.6665C8.66667 11.2853 8.9125 11.8788 9.35009 12.3164C9.78767 12.754 10.3812 12.9998 11 12.9998C11.6188 12.9998 12.2123 12.754 12.6499 12.3164C13.0875 11.8788 13.3333 11.2853 13.3333 10.6665C13.3333 10.0477 13.0875 9.45417 12.6499 9.01659C12.2123 8.579 11.6188 8.33317 11 8.33317ZM11 14.1665C8.45083 14.1665 6.33333 15.2268 6.33333 16.7528V17.6665H15.6667V16.7528C15.6667 15.2268 13.5492 14.1665 11 14.1665Z" />
</svg>
