<svg width="29" height="29" viewBox="0 0 29 29" fill="none" xmlns="http://www.w3.org/2000/svg">
<path d="M13.5197 3.25214L13.5201 3.25197C13.8257 3.11601 14.1743 3.11601 14.4799 3.25197L14.4803 3.25214L22.647 6.88164L22.6473 6.88181C23.0746 7.0715 23.35 7.49556 23.35 7.96342V11.5C23.35 15.7203 21.6247 18.791 19.5516 20.8933C17.5667 22.9061 15.2992 23.993 14 24.321C12.7008 23.993 10.4333 22.9061 8.44839 20.8933C6.37527 18.791 4.65 15.7203 4.65 11.5V7.96342C4.65 7.49472 4.92512 7.07163 5.35265 6.88181L5.35305 6.88164L13.5197 3.25214Z" stroke="#81858B" stroke-width="2.3"/>
<path d="M15.592 16.4755L15.7579 16.3249C17.1001 15.1103 18.5439 13.5169 17.7952 11.9542C17.4443 11.2217 16.6811 10.728 15.8969 10.7271H15.894C15.4569 10.7271 15.0494 10.8459 14.6822 11.0799L14.1664 11.4087L13.6516 11.0799C13.2844 10.8459 12.876 10.7271 12.4389 10.7271C11.6518 10.728 10.8886 11.2217 10.5377 11.9542C9.78994 13.5169 11.2328 15.1103 12.5731 16.3221L12.7313 16.4659C12.9748 16.6941 13.3678 16.9999 13.7484 17.2837C13.9968 17.4687 14.3361 17.4687 14.5844 17.2837C14.9641 17.0018 15.3533 16.6979 15.592 16.4755Z" fill="#81858B"/>
</svg>
